<svg version="1.1" xmlns="http://www.w3.org/2000/svg" xmlns:xlink="http://www.w3.org/1999/xlink" x="0px" y="0px"
	 width="595" height="841" viewBox="0 0 595.28 841.89" enable-background="new 0 0 595.28 841.89" xml:space="preserve">
<g id="Layer_1">
	<path fill="none" stroke="#AA0019" stroke-width="0.25" stroke-miterlimit="10" d="M183.167,453.668
		c-1.274,6.846-1.667,12.333-1.667,12.333c-1.667,9.167,7.333,26,7.333,26c4.833,8.333,8.167,13.666,8.167,13.666
		c1.833,1.5,1,4.834,1,4.834l-0.833,5.333c-0.167,3.167-2.333,4-2.333,4l-4.333,2c-7.167,3.5-15.667,6.333-15.667,6.333
		c-4,2.666-3.667,5.334-3.667,5.334c-0.5,2.167,1.167,4.333,1.167,4.333c1.5,1.5,2.5,5.167,2.5,5.167s4.167,13.333,8,23.833
		c0,0,2,7.501,3.5,14.834c0,0,0.262,5-1.702,7.833c0,0-2.297,4.166-0.964,5.333c0,0,1.5,2,6.333,3.667c0,0,5.5,2.333,7.167,0
		c0,0,1.167-2.667,2,0c0,0,0,3,5.5,4c0,0,3.208,0.792,4.458,2.333c0,0,0.75,2.666,6.125,1.666c0,0,4.125-1.25,6.125-0.875
		c0,0,2.524-0.072,3.458-0.791c2.542-1.954-0.167-3.333-0.167-3.333c-2.5-1.166-5.333-4.5-5.333-4.5l-2-2.167
		c-1.167-3.167-3.167-6.5-3.167-6.5l-3-5l-4.667-11.667c-3.833-8.167-2.333-15.833-2.333-15.833c1.333-5.667,2-8.167,2-8.167
		c2.833-7.167,4.167-10.166,4.167-10.166l1.5-1c5-1.5,10.333-4,10.333-4l5.667-3.167c5.333-2,12.667-7.667,12.667-7.667l8.833-7
		c3.167-1.5,3.833-5.166,3.833-5.166v-3.334c1-5.834,0-11.666,0-11.666c0.667-7.333,5-9.667,5-9.667l1.833-1.5c3.5-4.167,13-4,13-4
		c17.167-1.667,30.334-5.27,30.334-5.27c16.334-3.77,37.166-18.23,37.166-18.23c3.5-3.834,9.834-6.5,9.834-6.5
		c11-5.167,23.999-15.833,23.999-15.833c2.5-3.167,10.5-1.167,10.5-1.167l3.667,0.5c1.333-0.5,6.167-0.5,6.167-0.5
		c9.834,1.666,24.166,0.834,24.166,0.834c5.833,0.167,12.5,4,12.5,4l4.5,3.5c11,8,12.5,12.666,12.5,12.666
		c0.5,4.5,6.333,7.667,6.333,7.667c3.333,0.833,6,5.167,6,5.167l3.667,5.5c2.833,3,7.167,2.333,7.167,2.333l8-0.833
		c5-0.5,2.166-4.5,2.166-4.5l-3.166-3.667l-1.5-1.5c-1.333-2.5-3.834-5-3.834-5c-4.667-3.167-7.166-5.333-7.166-5.333l-2.334-3
		c-2.667-4.5-7.666-7.326-7.666-7.326c-10.333-7.492-12.5-10.674-12.5-10.674c-3.333-5.166-7.5-7.167-7.5-7.167l-3.833-2.5
		c-3.666-2.667-9.334-3.333-9.334-3.333l-5-1.5l5.5-3c9-4.167,13.834-4.833,13.834-4.833l5.166-0.667c5.5-0.167,7.667,2,7.667,2
		c4.667,2,10.333,5.667,10.333,5.667c8.333,6,13.667,8,13.667,8c4.833,1.166,5.333,5.334,5.333,5.334c1.5,3.334,6.5,3.833,6.5,3.833
		c8-0.5,11.334-3.333,11.334-3.333c3.5-2.833,0-5.667,0-5.667l-4-4.056c-2.333-2.723-5.5-3.277-5.5-3.277
		c-3.333-1.167-8-3.667-8-3.667c-8.333-4.833-15.667-7.667-15.667-7.667c-3.667-2-9.166-4.267-9.166-4.267l-2.167-1.067
		c-3.167-4.5-9.333-5.333-9.333-5.333l-3.5-0.667c-3.666-1.667-8.667,1.5-8.667,1.5c-3.333,1.167-8.833,2.504-8.833,2.504
		c-3.833,0.004-7.167,0.996-7.167,0.996c-4.667,1.667-7.833,2.067-7.833,2.067L403,401.834c-4,0.833-2.5-0.833-2.5-0.833
		c2.5-6.667,0.667-9.833,0.667-9.833c-1.333-1.5-2.334-8.667-2.334-8.667L398,379.334c-2.667-7.333-6.167-9.833-6.167-9.833
		c-2.834-2.5-5.166-7.667-5.166-7.667c-3.5-6.167-3-11.5-3-11.5c-0.666-21.833,1-32.333,1-32.333c0.334-4,1.833-5.833,1.833-5.833
		c3.167-4.167,5.167-5.5,5.167-5.5c2-2.833,8.833-2.667,8.833-2.667h2.167c9-1.833,15.167-4.333,15.167-4.333
		c2.667-1.5,5.666,0.167,5.666,0.167c2.833,1.833,5.834-0.667,5.834-0.667l2.166-1.167c1.333-1,2.334-1.833,2.334-1.833l0.333-1.333
		c2.667-3,1.5-6.5,1.5-6.5v-1.333c0-2.333-2-5.5-2-5.5c-2.833-4.333-8.833-5.5-8.833-5.5l-5-1.333c-3.666-1.167-8.334-2.5-8.334-2.5
		c-7.334-3.333-12-4.333-12-4.333c-4.667-1-6.666-3-6.666-3c-3.833-2.5-10-1.167-10-1.167c-3.833,1.833-6.334,0.667-6.334,0.667
		c-3.834-2.333-11.667-4.5-11.667-4.5l-4.666-1.833c-3.333-1.167-1,1.667-1,1.667l1.667,2.833c2.167,4,9,7.333,9,7.333
		c2.334,1,1.166,2.167,1.166,2.167c-1.667,1.167-2.333,4-2.333,4L363,280.167l-2.166,0.5c-0.666-0.5-0.667-2.167-0.667-2.167
		c-2,1.667-1.833,5.333-1.833,5.333h-1.5c-2.5-1.5-6.334,0-6.334,0c4.833,1.833,3.5,5.495,3.5,5.495l-2.867,0.005
		c-7.867-0.167-12.466,3.667-12.466,3.667c7-2.167,11.667,0,11.667,0c2.5,1.167-1.667,2.167-1.667,2.167
		c-3.667-0.833-7.333,0-7.333,0c-8,2.333-10.834,8.333-10.834,8.333c7.833-3.667,12.667-1.167,12.667-1.167
		c-2.833,2.167-8.27,2.667-8.27,2.667c-6.27-0.333-10.73,2.667-10.73,2.667c-4.833,2.667-7.833,1.167-7.833,1.167
		c1.334,2.5,3.333,2,3.333,2c7.167-0.5,9,1.667,9,1.667c4.333,4.333-2.167,4.667-2.167,4.667c-5.5,1.167-5.333-4.667-5.333-4.667
		c-1.667,1.667-1.667,4.5-1.667,4.5c-0.834,8,6,6.5,6,6.5c-11,5-13.666-5.333-13.666-5.333H311.5c-2.834,3.5-0.5,9.333-0.5,9.333
		c3.666,8.5,9.667,6.833,9.667,6.833c-5,2.833-10.5,1.167-10.5,1.167c-5.667-1.167-5.167-4.833-5.167-4.833
		c-0.834,2-0.5,5.167-0.5,5.167c0.666,7.5,7.5,8.833,7.5,8.833c-1.5,2.833-8.333,3.333-8.333,3.333c-10.167-1.333-8.833-10-8.833-10
		c-1.833,4.167-0.667,7.667-0.667,7.667c-0.167,5.5,9,9.451,9,9.451c-2.167,0.951-3,4.549-3,4.549c-1.667,5.167,2,5.833,2,5.833
		l-0.333-2.5c1.167-9,15.833-7.833,15.833-7.833c-6.5,4.667-12.167,13.667-12.167,13.667c-2.667,3.833-6.5,9.833-6.5,9.833
		c-3,6-6.5,9.333-6.5,9.333c-4.5,4.5-12.167,8-12.167,8c-4.5,2.167-10.333,4.833-10.333,4.833l-6.167,2.167L260,404.668
		c-7.333,2.167-12.667,3-12.667,3c-7.833,1.833-13.167,3.667-13.167,3.667l-3.5,1l-4,1.167c-11.167,4-19.5,12.667-19.5,12.667
		c-3.5,3.334-8.978,7.5-8.978,7.5c-5.811,5.5-8.189,7.166-8.189,7.166c-5.5,3.833-11.333,1-11.333,1S163,435,146.75,441
		c0,0-15.75,3.5-34.5,16c0,0-15.5,16-28-1c0,0-3.5-6.5,0-11.75c0,0-11.5,20,4.75,28.25c0,0,7.75,2.75,11.75,0.5
		c0,0-5.147,6.75-20.449,3.5c0,0-14.801-1.75-24.301,7.5l-6.75,8.75c0,0,12.5-12.75,27.5-6.75c0,0,10.75,1.25,14.5-1.5
		c0,0-17.25,14.5-34.25,17.5c0,0-7,3.75-7.75,10.25c0,0,1.25-6.5,18.5-7c0,0,17.25-4,24.5-11.75c0,0-5.75,11.75-25,20.5
		c0,0-17.75,11-18,19.75c0,0,21.25-21.25,37.25-24.25c0,0,20.25-7.75,30-21.5c0,0-6.5,13.25-13.25,17.5c0,0,18.5-9.25,26.75-25.5
		c0,0,8.5-9.25,14.25-11.75c0,0,2,4.75,0,9l10-11.75c0,0,1.5,12-2,17.25c0,0,8-13.5,16.25-18.5c0,0,6.25-5.25,7.75-8.25l5.5-4.5
		C181.75,451.5,183.457,452.107,183.167,453.668z"/>
</g>
<g id="Layer_2">
</g>
</svg>
